HIERARCHY
ROOT Hips
{
 OFFSET 0.000000 0.000000 0.000000
 CHANNELS 6 Xposition Yposition Zposition Yrotation Xrotation Zrotation
 JOINT Chest
 {
  OFFSET 0.000000 9.585900 0.002600
  CHANNELS 3 Yrotation Xrotation Zrotation
  JOINT Chest2
  {
   OFFSET 0.000000 9.601200 -0.005300
   CHANNELS 3 Yrotation Xrotation Zrotation
   JOINT Chest3
   {
    OFFSET 0.000000 9.561800 0.000000
    CHANNELS 3 Yrotation Xrotation Zrotation
    JOINT Chest4
    {
     OFFSET 0.000000 9.552100 0.000000
     CHANNELS 3 Yrotation Xrotation Zrotation
     JOINT Neck
     {
      OFFSET 0.000000 14.453000 0.000000
      CHANNELS 3 Yrotation Xrotation Zrotation
      JOINT Head
      {
       OFFSET 0.000000 8.936500 -0.011300
       CHANNELS 3 Yrotation Xrotation Zrotation
       End Site
       {
        OFFSET 0.000000 17.073600 -0.006000
       }
      }
     }
     JOINT RightCollar
     {
      OFFSET -2.921100 9.558500 0.000000
      CHANNELS 3 Yrotation Xrotation Zrotation
      JOINT RightShoulder
      {
       OFFSET -13.519700 0.000000 0.000000
       CHANNELS 3 Yrotation Xrotation Zrotation
       JOINT RightElbow
       {
        OFFSET 0.000000 -29.696600 0.000000
        CHANNELS 3 Yrotation Xrotation Zrotation
        JOINT RightWrist
        {
         OFFSET 0.000000 -24.004700 0.000000
         CHANNELS 3 Yrotation Xrotation Zrotation
         End Site
         {
          OFFSET 0.000000 -17.728500 0.000000
         }
        }
       }
      }
     }
     JOINT LeftCollar
     {
      OFFSET 2.921100 9.558500 0.000000
      CHANNELS 3 Yrotation Xrotation Zrotation
      JOINT LeftShoulder
      {
       OFFSET 13.519700 0.000000 0.000000
       CHANNELS 3 Yrotation Xrotation Zrotation
       JOINT LeftElbow
       {
        OFFSET 0.000000 -29.696600 0.000000
        CHANNELS 3 Yrotation Xrotation Zrotation
        JOINT LeftWrist
        {
         OFFSET 0.000000 -24.004700 0.000000
         CHANNELS 3 Yrotation Xrotation Zrotation
         End Site
         {
          OFFSET 0.000000 -17.728500 0.000000
         }
        }
       }
      }
     }
    }
   }
  }
 }
 JOINT RightHip
 {
  OFFSET -7.771700 -0.012900 -0.001300
  CHANNELS 3 Yrotation Xrotation Zrotation
  JOINT RightKnee
  {
   OFFSET 0.000000 -40.869800 0.001200
   CHANNELS 3 Yrotation Xrotation Zrotation
   JOINT RightAnkle
   {
    OFFSET 0.000000 -39.717900 0.002100
    CHANNELS 3 Yrotation Xrotation Zrotation
    JOINT RightToe
    {
     OFFSET 0.000000 -4.965400 11.033500
     CHANNELS 3 Yrotation Xrotation Zrotation
     End Site
     {
      OFFSET 0.000000 -1.423100 5.872300
     }
    }
   }
  }
 }
 JOINT LeftHip
 {
  OFFSET 7.771700 -0.012900 -0.001300
  CHANNELS 3 Yrotation Xrotation Zrotation
  JOINT LeftKnee
  {
   OFFSET 0.000000 -40.869800 0.001200
   CHANNELS 3 Yrotation Xrotation Zrotation
   JOINT LeftAnkle
   {
    OFFSET 0.000000 -39.717900 0.002100
    CHANNELS 3 Yrotation Xrotation Zrotation
    JOINT LeftToe
    {
     OFFSET 0.000000 -4.965400 11.033500
     CHANNELS 3 Yrotation Xrotation Zrotation
     End Site
     {
      OFFSET 0.000000 -1.423100 5.872300
     }
    }
   }
  }
 }
}
MOTION
Frames: 8
Frame Time: 0.008333
0.000000 85.388000 0.000000 0.000000 -5.767877 0.000000 0.000000 11.653817 0.000000 0.000000 -5.885947 0.000000 0.000000 -0.000000 0.000000 0.000000 -0.000000 0.000000 0.000000 12.528835 0.000000 0.000000 0.711642 0.000000 0.000000 -0.000000 0.000000 0.000000 0.000000 -90.000000 0.000000 -2.309062 0.000000 0.000000 2.309062 0.000000 0.000000 -0.000000 0.000000 0.000000 -0.000000 90.000000 0.000000 -2.309062 0.000000 0.000000 2.309062 0.000000 0.000000 8.520406 0.000000 0.000000 1.905762 0.000000 -0.000000 -4.658285 0.000000 0.000000 -0.000000 0.000000 0.000000 8.520406 0.000000 0.000000 1.905762 0.000000 -0.000000 -4.658285 0.000000 0.000000 -0.000000 0.000000
-2.721183 50.079430 33.392966 174.046563 -30.264809 -6.078777 5.516023 21.598767 7.768691 0.579582 3.141200 0.789354 0.960423 5.077913 1.294462 4.154395 18.310745 5.253607 -5.567619 12.508287 -0.049108 -10.567974 -12.364519 2.192908 1.853328 -1.677038 -6.921600 0.674161 -9.990638 -2.884419 -159.312651 -54.915526 161.477625 0.189288 -10.873098 24.862539 -9.941724 -2.868363 -1.447071 2.074462 -11.011584 3.654542 166.740371 -56.182570 174.475114 10.192126 -12.639373 14.878473 1.360841 -51.100143 7.742288 -79.386030 78.141482 -68.142122 0.537788 -7.790635 -2.882374 -0.430615 1.336572 -0.151466 -15.632300 -54.367799 19.444362 161.439928 87.537862 154.313397 -3.134921 -7.379041 3.167748 -0.043647 -0.188649 -0.042984
-2.727568 50.073285 33.376193 174.103312 -30.252611 -6.056978 5.477228 21.689162 7.760272 0.580363 3.152971 0.795518 0.961831 5.095805 1.304353 4.155616 18.335664 5.280240 -5.623731 12.518425 -0.106351 -10.650384 -12.346838 2.106139 1.895030 -1.666561 -6.939234 0.753112 -10.185734 -3.081935 -160.609165 -54.977308 162.487739 0.269824 -10.948097 24.322062 -9.996182 -2.871832 -1.453784 1.428929 -11.367727 3.720753 169.581432 -56.162051 172.625831 9.165262 -13.229989 17.117610 1.384869 -51.110198 7.664446 -79.521479 78.181731 -68.302421 0.543451 -7.851565 -2.835117 -0.462781 1.369878 -0.183533 -15.610629 -54.398828 19.334272 161.147010 87.515443 154.036746 -3.132421 -7.379459 3.175341 -0.037479 -0.196852 -0.056016
-2.720982 50.070339 33.355242 174.163693 -30.272622 -6.113277 5.458511 21.776249 7.824551 0.579655 3.186182 0.809453 0.963162 5.118766 1.313941 4.154629 18.369464 5.303324 -5.675335 12.516786 -0.169590 -10.722614 -12.351973 2.007147 1.952880 -1.653851 -6.955587 0.834974 -10.387329 -3.301368 -161.603731 -54.976809 163.283999 0.356918 -11.014510 23.929635 -10.057351 -2.859017 -1.462666 0.799307 -11.722010 3.791226 171.547141 -56.120835 171.383545 8.311426 -13.853651 18.927201 1.404822 -51.085615 7.703841 -79.653258 78.163264 -68.420164 0.457816 -7.925120 -2.808578 -0.424019 1.414857 -0.160067 -15.680653 -54.385315 19.325684 161.665216 87.486010 154.605331 -3.086832 -7.403408 3.140834 -0.041512 -0.196247 -0.056559
-2.713263 50.063581 33.340038 174.201088 -30.254733 -6.170654 5.445098 21.778325 7.875356 0.573026 3.260402 0.836781 0.965287 5.148538 1.323269 4.154039 18.414639 5.322305 -5.720686 12.507698 -0.233525 -10.783272 -12.371383 1.905098 2.029473 -1.647705 -6.971522 0.912768 -10.595042 -3.535983 -162.322221 -54.927112 163.895322 0.414022 -11.080831 23.661850 -10.129167 -2.838206 -1.474272 0.236955 -12.077604 3.874098 172.864677 -56.073261 170.558659 7.726718 -14.396367 20.314058 1.399850 -51.101035 7.762844 -79.741577 78.141503 -68.496035 0.424557 -7.975489 -2.812455 -0.405767 1.452704 -0.129247 -15.779338 -54.408769 19.382681 161.931994 87.448837 154.901200 -3.064071 -7.423696 3.118739 -0.051607 -0.194972 -0.053719
-2.702957 50.056651 33.325838 174.190826 -30.243498 -6.223751 5.478065 21.834003 7.968051 0.562701 3.285686 0.834281 0.967588 5.183976 1.332377 4.151891 18.469467 5.337610 -5.757449 12.499020 -0.293860 -10.829045 -12.390329 1.806328 2.129302 -1.652831 -6.991236 0.980042 -10.809864 -3.775409 -162.862664 -54.846431 164.402777 0.412979 -11.151293 23.476240 -10.198804 -2.815681 -1.494787 -0.249662 -12.438895 3.977467 173.708861 -56.015416 170.029886 7.440823 -14.774433 21.253601 1.410393 -51.115586 7.843956 -79.815146 78.107641 -68.538755 0.394029 -8.006336 -2.824715 -0.344541 1.484810 -0.116419 -15.872085 -54.423840 19.467734 162.652051 87.413458 155.659135 -3.006329 -7.449868 3.087866 -0.053163 -0.195661 -0.056715
-2.698973 50.051038 33.308085 174.191316 -30.261248 -6.247333 5.467952 21.987253 8.016155 0.579118 3.254984 0.822705 0.969562 5.221380 1.340909 4.147652 18.527963 5.349786 -5.787290 12.499752 -0.348821 -10.863200 -12.391787 1.714034 2.246838 -1.663672 -7.011603 1.051400 -11.032535 -4.017694 -163.338677 -54.755582 164.884486 0.352191 -11.228604 23.313358 -10.268320 -2.792749 -1.520181 -0.647405 -12.806453 4.095932 174.127224 -55.938897 169.757403 7.405681 -14.978434 21.731249 1.462478 -51.104180 7.874615 -79.900234 78.096972 -68.620974 0.361471 -8.047781 -2.785040 -0.340675 1.515416 -0.118411 -15.915256 -54.412290 19.480231 163.043111 87.379159 156.077634 -2.967483 -7.474420 3.072283 -0.051388 -0.197304 -0.066786
-2.703135 50.045446 33.289391 174.211324 -30.290969 -6.237946 5.434116 22.125469 7.999697 0.587003 3.259445 0.823870 0.972163 5.258173 1.348411 4.145675 18.585356 5.358757 -5.816045 12.509366 -0.399833 -10.896255 -12.376491 1.628111 2.367894 -1.674521 -7.022650 1.168874 -11.263442 -4.276632 -163.829205 -54.661454 165.374159 0.268998 -11.310584 23.116856 -10.363311 -2.778241 -1.539832 -0.929563 -13.175828 4.218369 174.098887 -55.847668 169.738386 7.511923 -15.074180 21.799191 1.547032 -51.083218 7.847254 -79.970812 78.119417 -68.737304 0.357403 -8.097197 -2.677801 -0.407675 1.552679 -0.156647 -15.911252 -54.393146 19.421185 162.896575 87.345791 155.938617 -2.955684 -7.491531 3.063122 -0.055768 -0.199848 -0.064591
